<?xml version="1.0" standalone="no"?>
<!DOCTYPE svg PUBLIC "-//W3C//DTD SVG 20010904//EN"
 "http://www.w3.org/TR/2001/REC-SVG-20010904/DTD/svg10.dtd">
<svg version="1.0" xmlns="http://www.w3.org/2000/svg"
 width="1340.000000pt" height="892.000000pt" viewBox="0 0 1340.000000 892.000000"
 preserveAspectRatio="xMidYMid meet">

<g transform="translate(0.000000,892.000000) scale(0.100000,-0.100000)"
fill="#000000" stroke="none">
<path d="M3298 5314 c-149 -23 -330 -92 -447 -172 l-44 -30 -31 19 c-19 12
-50 19 -80 19 -43 0 -53 -4 -86 -38 -49 -49 -60 -105 -32 -162 l19 -39 -44
-47 c-62 -65 -121 -158 -139 -223 -43 -146 41 -269 250 -371 192 -93 170 -91
832 -88 l579 3 85 37 c387 165 477 391 251 629 l-58 61 18 36 c33 64 17 136
-38 176 -38 28 -120 32 -157 9 l-30 -19 -78 47 c-233 141 -506 195 -770 153z
m-212 -609 c35 -23 68 -98 61 -141 -8 -51 -42 -90 -92 -109 -173 -66 -278 184
-110 261 37 18 106 12 141 -11z m934 7 c65 -36 92 -137 53 -202 -20 -35 -85
-70 -129 -70 -69 0 -134 72 -134 148 0 57 25 97 75 122 50 25 90 25 135 2z" fill="#334155"/>
<path d="M5000 4501 l0 -781 23 -6 c13 -3 154 -4 313 -2 319 3 325 5 399 69
76 67 80 86 83 415 2 182 -1 313 -7 350 -16 83 -54 140 -121 178 l-55 31 -248
3 c-214 3 -252 1 -272 -12 l-25 -16 -2 272 -3 273 -42 3 -43 3 0 -780z m651
144 c15 -11 37 -35 50 -54 24 -34 24 -37 27 -345 3 -350 3 -351 -71 -410 l-39
-31 -264 -3 -264 -3 0 424 c0 324 3 426 12 435 10 10 74 12 268 10 237 -3 257
-4 281 -23z" fill="#334155"/>
<path d="M5980 5241 c0 -47 8 -51 101 -51 l69 0 0 -728 c0 -553 3 -731 12
-740 7 -7 31 -12 55 -12 l43 0 0 769 c0 423 -3 776 -6 785 -5 14 -27 16 -140
16 l-134 0 0 -39z" fill="#334155"/>
<path d="M7442 5238 l3 -43 310 -5 c344 -6 342 -5 403 -75 18 -19 35 -48 39
-63 5 -15 8 -118 8 -229 0 -197 -1 -203 -23 -225 -22 -23 -25 -23 -342 -26
l-320 -3 0 -32 c0 -18 5 -38 12 -45 9 -9 94 -12 320 -12 292 0 309 -1 327 -19
29 -29 33 -68 29 -297 -3 -227 -7 -241 -65 -296 -58 -55 -76 -58 -397 -58
-162 0 -301 -3 -310 -6 -11 -4 -16 -19 -16 -50 l0 -44 278 0 c152 0 305 4 340
9 79 12 145 43 193 93 64 66 72 104 77 352 5 266 1 300 -40 338 l-30 28 30 35
c17 19 34 50 38 70 11 59 -2 416 -16 455 -35 91 -94 145 -190 174 -44 13 -110
16 -357 16 l-304 0 3 -42z" fill="#334155"/>
<path d="M10487 5048 c-95 -128 -262 -354 -372 -502 l-199 -269 -4 -63 c-5
-77 2 -107 30 -134 21 -19 34 -20 390 -20 l368 0 0 -170 0 -170 24 -6 c13 -3
35 -4 47 -2 l24 3 3 173 2 172 91 0 90 0 -3 43 -3 42 -87 3 -88 3 0 549 c0
301 -3 555 -6 564 -5 12 -21 16 -70 16 l-64 0 -173 -232z m208 -885 c-6 -18
-655 -19 -673 -1 -15 15 -16 73 -1 101 7 11 161 219 343 462 l331 440 3 -495
c1 -272 0 -501 -3 -507z" fill="#334155"/>
<path d="M6537 4753 c-4 -3 -7 -24 -7 -45 l0 -38 310 0 c262 0 311 -2 316 -15
4 -9 -114 -159 -319 -407 -178 -216 -329 -403 -335 -415 -18 -33 -15 -110 4
-117 9 -3 181 -6 383 -6 272 0 370 3 379 12 7 7 12 27 12 45 l0 33 -329 0
c-271 0 -331 2 -340 14 -10 12 49 88 313 405 l326 391 0 75 0 75 -353 0 c-195
0 -357 -3 -360 -7z" fill="#334155"/>
<path d="M8570 4235 l0 -525 45 0 45 0 0 425 c0 471 1 478 62 515 29 18 50 20
180 20 80 0 153 3 162 6 11 4 16 19 16 46 l0 40 -162 -3 c-157 -4 -165 -5
-210 -32 l-48 -28 0 31 c0 29 -2 30 -45 30 l-45 0 0 -525z" fill="#334155"/>
<path d="M9280 4234 l0 -525 43 3 42 3 5 437 c6 554 -11 518 246 518 165 0
174 3 174 58 l0 34 -162 -3 c-155 -4 -165 -5 -210 -31 l-48 -27 0 30 c0 28 -2
29 -45 29 l-45 0 0 -526z" fill="#334155"/>
<path d="M3037 4125 c113 -36 237 -50 443 -49 180 1 222 4 345 28 76 15 141
29 144 31 2 3 -216 5 -485 4 -420 -1 -483 -3 -447 -14z" fill="#334155"/>
<path d="M4177 4006 c-50 -18 -76 -42 -98 -91 -43 -93 -9 -182 86 -226 52 -24
96 -24 145 1 120 61 127 233 13 297 -52 29 -101 35 -146 19z" fill="#334155"/>
<path d="M2718 3980 c-55 -30 -82 -74 -86 -145 -3 -50 0 -65 20 -94 75 -110
213 -114 292 -8 31 42 33 132 4 182 -45 78 -150 107 -230 65z" fill="#334155"/>
</g>
</svg>
